<svg version="1.1" id="Layer_1" xmlns="http://www.w3.org/2000/svg" xmlns:xlink="http://www.w3.org/1999/xlink" x="0px" y="0px"
	 width="100%" viewBox="0 0 1024 1024" enable-background="new 0 0 1024 1024" xml:space="preserve">
<path fill="#000000" opacity="1.000000" stroke="none" 
	d="
M1.000000,984.468628 
	C6.152849,983.660645 8.098604,986.220154 8.056752,991.203918 
	C7.964746,1002.160522 8.125009,1013.119202 8.091147,1024.538574 
	C5.688149,1025.000000 3.376298,1025.000000 1.000000,1025.000000 
	C1.000000,1011.645813 1.000000,998.291565 1.000000,984.468628 
z"/>
<path fill="#000000" opacity="1.000000" stroke="none" 
	d="
M298.402039,655.929565 
	C290.174194,654.197632 282.360321,652.590149 274.228058,650.917114 
	C273.137146,646.787354 272.744354,642.383423 272.743958,637.897583 
	C272.736847,551.731079 272.686279,465.564636 272.733002,379.398193 
	C272.735168,375.368469 271.851654,372.780304 268.397980,369.857330 
	C258.438812,361.428558 254.605576,341.596008 266.387299,328.381317 
	C277.401825,316.027161 292.425781,313.142487 310.197571,319.361847 
	C322.455963,323.651764 331.201385,332.093567 338.755402,341.959778 
	C352.018829,359.283081 364.634399,377.106110 378.037201,394.318146 
	C398.301727,420.342072 417.391693,447.252411 438.004364,473.014679 
	C448.092834,485.623505 457.099701,499.085449 467.577271,511.410034 
	C469.739075,513.952881 478.139526,515.075012 480.593719,513.049255 
	C481.781433,512.068909 481.655304,510.668427 481.634277,509.349579 
	C481.288879,487.696930 482.029175,466.044891 481.146454,444.382294 
	C480.625153,431.588654 481.588013,418.740875 481.634247,405.916534 
	C481.731537,378.916901 481.773193,351.915863 481.563873,324.917542 
	C481.526886,320.149536 482.843628,318.282501 487.708130,318.679443 
	C490.994965,318.947662 494.359192,318.545288 497.665497,318.211823 
	C500.427399,317.933228 501.251923,318.869568 500.829132,321.609589 
	C500.425720,324.224152 500.371918,326.910828 500.367889,329.566132 
	C500.276978,389.565521 500.221924,449.564911 500.122345,509.564301 
	C500.117432,512.525391 500.452362,515.555115 499.310089,518.702576 
	C495.342529,518.493103 491.425385,517.896667 487.841553,520.478760 
	C483.338165,523.723328 481.222809,528.139832 482.513214,532.898560 
	C483.882355,537.947693 489.094025,542.907898 493.914978,542.543945 
	C499.654968,542.110657 500.357086,544.721069 500.327362,549.549316 
	C500.136597,580.547974 500.235138,611.548279 500.143127,642.547729 
	C500.128326,647.534912 499.471497,652.519409 499.433960,657.507568 
	C499.415680,659.940491 497.946320,660.380737 496.267914,661.241821 
	C486.616089,666.192749 482.911285,677.493835 487.949982,686.250305 
	C491.912750,693.136963 497.122253,695.816345 504.025452,694.518433 
	C511.323120,693.146301 517.322815,686.692078 518.755798,679.970398 
	C520.465820,671.949524 519.183594,664.089294 518.639954,656.165222 
	C517.315308,636.855530 518.092834,617.522522 518.028442,598.202087 
	C517.892395,557.369507 517.647461,516.531494 518.161255,475.704651 
	C518.488281,449.713806 517.509460,423.739227 517.982483,397.751160 
	C518.091736,391.748077 519.505005,388.164642 525.829468,386.995087 
	C530.000488,386.223724 533.847778,383.852966 538.162537,384.051514 
	C539.649963,385.599396 539.282104,387.346497 539.280640,388.955353 
	C539.203186,475.620819 539.120972,562.286316 538.974060,648.951660 
	C538.958252,658.277832 538.462097,667.602234 538.347534,676.929382 
	C538.158813,692.284546 527.502808,705.674622 511.635162,711.309753 
	C491.541534,718.445557 467.322784,711.181458 454.883789,693.298462 
	C438.333893,669.505371 421.433868,645.955566 404.663696,622.315857 
	C383.269623,592.158203 361.953491,561.947205 341.660339,531.029541 
	C341.027863,530.065979 340.191376,529.236267 338.943970,527.735229 
	C337.940979,543.876648 338.021301,559.394226 338.485352,574.858398 
	C338.679657,581.333862 336.437622,585.818481 332.452332,590.214539 
	C322.759888,600.906006 313.200806,611.718445 303.499451,622.401733 
	C302.040009,624.008789 302.261993,625.716553 302.263824,627.524170 
	C302.272095,635.690552 302.289917,643.856934 302.257599,652.023193 
	C302.248688,654.271729 302.186554,656.612305 298.402039,655.929565 
M434.790985,564.689514 
	C411.233612,536.161987 390.469147,505.503754 367.490570,476.528564 
	C353.418274,458.783875 341.001038,439.775055 326.623322,422.247437 
	C325.565674,420.958008 324.755157,419.383026 322.846710,419.278931 
	C313.261017,418.756256 303.700439,419.149475 294.387177,419.426300 
	C294.109833,420.310547 294.016266,420.469574 294.016235,420.628571 
	C293.996063,481.586578 294.788635,542.547302 293.381317,603.500854 
	C293.320618,606.131165 293.362457,608.826965 296.098846,610.929932 
	C302.797699,603.013916 309.438965,595.179565 316.061493,587.329468 
	C317.526184,585.593201 317.886627,583.547119 317.967468,581.289001 
	C318.933350,554.317139 318.438446,527.334229 318.623230,500.357117 
	C318.689728,490.649261 318.635284,490.903198 327.765411,487.323944 
	C331.373383,485.909485 332.940613,486.780823 335.052948,489.639313 
	C359.598175,522.854919 383.918365,556.227112 407.715118,589.988708 
	C426.424377,616.532410 445.730774,642.655823 464.864655,668.898438 
	C466.871277,671.650574 468.362640,674.901001 471.469208,677.280334 
	C473.586823,673.303162 475.448212,669.544434 478.672241,666.820740 
	C481.046051,664.815308 481.716034,662.367004 481.712952,659.316101 
	C481.681152,627.835388 481.746887,596.354858 480.779419,564.883118 
	C480.710938,562.656067 480.355591,560.693665 478.856415,558.877502 
	C458.602539,534.341248 440.195343,508.370087 420.259460,483.574310 
	C405.346008,465.025238 391.396667,445.702881 376.929077,426.792908 
	C359.727173,404.308899 341.132629,382.901581 324.935181,359.641205 
	C320.060150,352.640381 314.906708,345.954132 307.894379,340.873474 
	C298.161530,333.821686 284.213165,335.533203 279.120422,344.547424 
	C273.751007,354.051361 278.485443,369.307861 288.743469,373.400085 
	C293.645203,375.355469 294.369232,378.398621 294.033020,382.661316 
	C293.915375,384.152863 293.607697,385.628723 293.466095,387.119293 
	C292.628540,395.936035 298.661804,402.607971 307.524475,402.665802 
	C316.523041,402.724579 325.521881,402.742188 334.520264,402.820557 
	C336.681976,402.839386 338.701630,402.945312 340.204102,405.125946 
	C355.228912,426.932251 370.973724,448.213043 386.859955,469.400513 
	C408.337891,498.045746 429.383148,527.013733 451.518280,555.165894 
	C460.555664,566.659912 468.316467,579.111816 478.148468,590.580444 
	C472.898651,593.658875 467.299164,594.604675 462.089478,596.560059 
	C459.299255,597.607239 457.828766,596.569397 456.287903,594.407288 
	C449.330078,584.644104 442.257324,574.962830 434.790985,564.689514 
z"/>
<path fill="#000000" opacity="1.000000" stroke="none" 
	d="
M747.783752,681.676208 
	C744.338928,682.962891 742.761658,681.058594 741.209595,678.950195 
	C726.892395,659.501831 712.614624,640.024109 698.211914,620.639221 
	C682.815491,599.917114 667.269531,579.306152 651.867065,558.588501 
	C650.071350,556.173218 647.937012,555.285706 645.044617,555.321960 
	C642.553955,555.353210 641.325195,556.284607 641.328491,558.838867 
	C641.354736,579.003357 641.378845,599.167908 641.334412,619.332275 
	C641.329407,621.615540 642.728271,622.926392 643.983276,624.481201 
	C656.843445,640.414307 669.676147,656.369507 682.481995,672.346252 
	C683.613831,673.758423 684.987305,675.116089 685.262207,677.016113 
	C685.608765,679.411255 687.162781,680.121887 689.283264,680.748291 
	C697.207581,683.089233 701.332214,690.335083 699.420471,698.155334 
	C697.297241,706.840698 689.727966,711.790771 680.947510,710.236145 
	C674.292847,709.057800 669.200928,701.004333 670.105591,693.302246 
	C670.617493,688.944275 671.985046,684.917175 674.440186,681.137817 
	C661.335571,666.471619 649.988281,650.588074 636.599182,636.421814 
	C632.925781,632.535156 629.110840,628.777039 623.763794,627.251831 
	C622.128967,626.785522 621.791687,625.700134 621.702393,624.278748 
	C621.451782,620.291870 620.953979,616.306885 620.948914,612.320557 
	C620.917664,587.661682 620.536438,563.001343 621.571472,538.347107 
	C621.914185,530.185303 620.917358,529.429016 612.904053,529.392578 
	C609.071655,529.375122 605.238464,529.412354 601.406311,529.468689 
	C597.069275,529.532410 595.048340,531.161316 595.086975,536.099976 
	C595.343750,568.929016 595.295654,601.760498 595.318970,634.591187 
	C595.335144,657.422913 595.201660,680.255432 595.384460,703.085632 
	C595.422729,707.869629 593.873230,709.816711 589.067505,709.353027 
	C586.260864,709.082214 583.386353,709.100342 580.577454,709.363159 
	C576.250061,709.768005 574.671143,708.119995 574.728271,703.710449 
	C574.898926,690.547607 574.681396,677.380310 574.684875,664.214722 
	C574.714539,551.390198 574.757568,438.565643 574.804993,325.741119 
	C574.807739,319.122894 574.841431,319.122864 581.645691,318.872498 
	C595.336670,318.368652 595.334167,318.368683 595.319763,332.129150 
	C595.258850,390.291382 595.199036,448.453613 595.140259,506.615845 
	C595.133484,513.372314 595.444458,513.691895 602.085083,513.696716 
	C606.251465,513.699768 610.417847,513.690430 614.584167,513.667053 
	C620.923645,513.631409 621.700989,512.908997 621.628357,506.374939 
	C621.474609,492.552246 621.114075,478.731232 621.034668,464.908417 
	C620.911133,443.412201 620.965454,421.914978 620.905884,400.418274 
	C620.897461,397.391357 622.033325,395.296082 624.344604,393.142822 
	C632.760437,385.302643 639.614258,376.036926 647.027649,367.281372 
	C651.542480,361.949219 656.126709,356.671570 660.821655,351.498169 
	C663.107849,348.978973 665.737000,347.327301 668.906250,350.519287 
	C671.848694,353.482910 669.630798,355.476990 667.843262,357.765350 
	C660.161865,367.599060 651.824158,376.868164 643.472961,386.119934 
	C641.287842,388.540680 640.805420,390.758667 641.078552,394.120514 
	C641.710754,401.902679 641.314392,409.769226 641.317200,417.601562 
	C641.323608,435.568939 641.319275,453.536316 641.319275,472.416931 
	C675.543213,430.027679 707.742981,387.308533 742.800049,345.841156 
	C744.531006,352.117432 748.429504,354.241669 753.660156,352.624481 
	C759.090820,350.945404 761.959351,353.915741 765.371399,357.728119 
	C754.517151,364.294891 747.600342,374.394104 739.653809,383.485199 
	C727.500610,397.388916 715.731323,411.612976 704.072021,425.935669 
	C691.358093,441.554077 678.308899,456.899658 665.408386,472.366211 
	C664.448059,473.517609 663.408508,474.618774 662.573914,475.856659 
	C654.877747,487.271423 654.223267,482.884552 663.403137,494.839386 
	C668.385986,501.328278 675.302307,505.979858 681.995972,510.655701 
	C685.342468,512.993408 689.261047,513.696045 693.393982,513.683716 
	C716.892090,513.613770 740.391968,513.796082 763.887695,513.552795 
	C768.994263,513.499878 770.829834,514.999146 770.170654,520.077271 
	C769.770752,523.158386 770.096985,526.333740 770.096985,529.678101 
	C766.661316,530.668579 763.515320,529.917419 760.417725,529.929382 
	C733.754456,530.032043 707.090820,530.177185 680.427795,530.104980 
	C676.131226,530.093323 674.222900,531.286682 674.872498,535.783386 
	C675.154663,537.736511 674.930481,539.778381 674.806458,541.771790 
	C674.318726,549.613770 676.102478,556.149414 681.267334,562.836975 
	C701.825134,589.455566 721.455383,616.788513 741.622864,643.711853 
	C747.572937,651.655090 752.325684,660.661499 760.719360,666.582031 
	C762.029846,667.506348 762.544189,668.694641 761.456970,669.946594 
	C758.762451,673.049316 758.633240,676.914612 758.045837,681.081604 
	C754.754089,681.249512 751.475769,681.416748 747.783752,681.676208 
M661.816956,513.908325 
	C660.787354,512.146423 659.280945,510.834442 657.638855,509.703735 
	C651.664246,505.589905 645.065125,505.536987 639.023682,509.489502 
	C634.619080,512.371216 632.272217,518.967773 633.504578,525.002869 
	C634.784180,531.269104 639.829529,536.360596 646.269104,537.398132 
	C651.966797,538.316162 657.458618,537.354675 661.100403,532.516235 
	C665.278320,526.965454 664.560303,520.719543 661.816956,513.908325 
z"/>
<path fill="#000000" opacity="1.000000" stroke="none" 
	d="
M289.635498,710.990967 
	C279.980316,708.242981 271.111938,705.012024 265.470886,696.462402 
	C264.181274,694.507935 263.224274,692.435181 262.493073,690.183105 
	C261.225250,686.278076 260.866730,683.284363 265.954773,681.757874 
	C269.345886,680.740417 271.567657,677.740479 273.435394,674.698547 
	C274.141693,673.548157 275.039581,672.365967 276.601715,672.813843 
	C277.879456,673.180176 278.017639,674.491577 278.313843,675.639099 
	C281.660950,688.604919 299.128021,700.649536 315.776611,687.762451 
	C319.482147,684.894165 321.511017,685.518005 324.586426,688.081787 
	C331.182434,693.580688 331.160187,693.326355 325.208252,699.014038 
	C315.306763,708.476013 303.542297,712.207397 289.635498,710.990967 
z"/>
<path fill="#000000" opacity="1.000000" stroke="none" 
	d="
M662.061279,326.683533 
	C664.394653,317.637726 671.805786,311.572083 680.016602,311.689514 
	C688.413269,311.809601 696.111511,318.318573 698.072510,326.955841 
	C699.852173,334.794464 695.664551,344.045135 688.656067,347.757233 
	C674.109375,355.462036 661.452881,347.638275 661.670471,331.063843 
	C661.687866,329.739471 661.837280,328.416809 662.061279,326.683533 
M681.802673,340.184814 
	C684.242065,338.976379 686.199524,337.222870 687.551697,334.864258 
	C689.489929,331.483307 688.340393,325.938354 685.221008,323.050293 
	C681.910706,319.985565 678.806030,321.623291 675.705994,323.410767 
	C672.496277,325.261414 671.562012,328.255280 672.526855,331.522705 
	C673.806946,335.857269 675.641968,340.014069 681.802673,340.184814 
z"/>
<path fill="#000000" opacity="1.000000" stroke="none" 
	d="
M749.613037,690.948242 
	C754.999939,684.873291 760.893433,683.261169 766.687805,685.994690 
	C771.606079,688.314880 774.882080,694.270447 774.121094,699.507812 
	C772.954529,707.535645 766.574829,711.529114 756.881165,710.298950 
	C750.930176,709.543701 747.294556,703.390808 748.293762,695.603577 
	C748.481567,694.140015 749.033569,692.723145 749.613037,690.948242 
z"/>
<path fill="#000000" opacity="1.000000" stroke="none" 
	d="
M763.264099,341.490906 
	C753.711121,341.891418 748.937195,337.928131 748.707275,329.650391 
	C748.578674,325.020294 749.220032,320.632812 754.049805,318.308228 
	C759.266235,315.797607 766.372925,316.366364 769.946472,319.972107 
	C773.602722,323.661316 773.704651,328.235229 771.979370,332.879852 
	C770.478760,336.919525 768.051636,340.158142 763.264099,341.490906 
z"/>
</svg>